<svg xmlns="http://www.w3.org/2000/svg" width="20.679" height="25.883" viewBox="0 0 20.679 25.883">
    <g id="Group_54" transform="translate(-337.321 -17)">
        <g id="Icon_ionic-ios-notifications-outline" transform="translate(330.546 13.07)">
            <path id="Path_10" d="M19.916,28.336a.838.838,0,0,0-.822.66,1.621,1.621,0,0,1-.323.705,1.223,1.223,0,0,1-1.042.382,1.243,1.243,0,0,1-1.042-.382A1.621,1.621,0,0,1,16.365,29a.838.838,0,0,0-.822-.66h0a.844.844,0,0,0-.822,1.029,2.891,2.891,0,0,0,3.008,2.4,2.885,2.885,0,0,0,3.008-2.4.847.847,0,0,0-.822-1.029Z" transform="translate(-0.634 -1.951)"/>
            <path id="Path_11" d="M27.195,23.1c-1-1.313-2.956-2.083-2.956-7.964,0-6.036-2.665-8.462-5.15-9.044-.233-.058-.4-.136-.4-.382V5.522A1.587,1.587,0,0,0,17.135,3.93H17.1a1.587,1.587,0,0,0-1.553,1.591V5.71c0,.239-.168.323-.4.382-2.491.589-5.15,3.008-5.15,9.044,0,5.881-1.96,6.644-2.956,7.964a1.284,1.284,0,0,0,1.029,2.057h18.12A1.285,1.285,0,0,0,27.195,23.1Zm-2.523.375H9.586A.284.284,0,0,1,9.372,23a7.837,7.837,0,0,0,1.359-2.161,14.66,14.66,0,0,0,.925-5.706A9.921,9.921,0,0,1,13.008,9.52a4.151,4.151,0,0,1,2.5-1.786,2.267,2.267,0,0,0,1.2-.679.512.512,0,0,1,.77-.013,2.344,2.344,0,0,0,1.216.692A4.151,4.151,0,0,1,21.2,9.52a9.921,9.921,0,0,1,1.352,5.615,14.66,14.66,0,0,0,.925,5.706,7.927,7.927,0,0,0,1.391,2.193A.267.267,0,0,1,24.672,23.474Z" transform="translate(0 0)"/>
        </g>
        <circle id="Ellipse_8" cx="3.5" cy="3.5" r="3.5" transform="translate(351 19)" fill="#f67719"/>
    </g>
</svg>
