<svg id="otp" xmlns="http://www.w3.org/2000/svg" xmlns:xlink="http://www.w3.org/1999/xlink" width="58" height="56.122" viewBox="0 0 58 56.122">
  <defs>
    <linearGradient id="linear-gradient" x1="0.5" x2="0.5" y2="1" gradientUnits="objectBoundingBox">
      <stop offset="0" stop-color="#f6921e"/>
      <stop offset="1" stop-color="#f65c15"/>
    </linearGradient>
  </defs>
  <path id="Path_6" d="M57.98,27.722a.85.85,0,0,0-.561-.623L38.007,20.628a.85.85,0,1,0-.537,1.612l16.215,5.4-20.724,3.6L5.859,11.7l27.982,9.327a.85.85,0,1,0,.537-1.612L1.118,8.332c-.011,0-.019,0-.029-.007A.848.848,0,0,0,.073,9.483l22.52,50.671a.85.85,0,0,0,1.361.271l9.4-8.913,8.331,5.262.012,0a.846.846,0,0,0,.441.127.86.86,0,0,0,.1-.005.85.85,0,0,0,.748-.744l1.84-15.48L57.733,28.524a.85.85,0,0,0,.248-.8Zm-3.474,1.5L43.942,39.17l-9.055-6.531ZM37.156,45.561,24.869,57.216l4.608-19.108Zm.866,1.52,2.484,6.939-5.883-3.715Zm3.7,5.287-2.536-7.087-.006-.014a.848.848,0,0,0-.2-.31L26.4,32.755a.85.85,0,0,0-1.183,1.219l2.842,2.758L23.13,57.178,3.41,12.807l19.369,18.8a.85.85,0,1,0,1.183-1.219L9.8,16.64,43.111,40.666Z" transform="translate(0 -8.29)" fill="url(#linear-gradient)"/>
  <path id="Path_7" d="M422.524,315.684a.847.847,0,0,1-.6-.249l-7.507-7.507a.85.85,0,1,1,1.2-1.2l7.507,7.507a.85.85,0,0,1-.6,1.45Z" transform="translate(-367.25 -272.699)" fill="url(#linear-gradient)"/>
  <path id="Path_8" d="M306.558,431.651a.847.847,0,0,1-.6-.249L298.45,423.9a.85.85,0,1,1,1.2-1.2l7.507,7.507a.85.85,0,0,1-.6,1.45Z" transform="translate(-264.421 -375.529)" fill="url(#linear-gradient)"/>
  <path id="Path_9" d="M422.524,431.651a.847.847,0,0,1-.6-.249l-7.507-7.507a.85.85,0,1,1,1.2-1.2l7.507,7.507a.85.85,0,0,1-.6,1.45Z" transform="translate(-367.25 -375.529)" fill="url(#linear-gradient)"/>
</svg>
